<svg width="378" height="378" viewBox="0 0 378 378" fill="none" xmlns="http://www.w3.org/2000/svg">
<circle cx="189" cy="189" r="189" fill="#F9F9F9" fill-opacity="0.933333"/>
<circle cx="128" cy="157.333" r="30" fill="#3C50E0" fill-opacity="0.8"/>
<circle cx="179.333" cy="156.667" r="37.3333" fill="#3C50E0" fill-opacity="0.8"/>
<circle cx="235" cy="157" r="45" fill="#3C50E0" fill-opacity="0.8"/>
<path d="M66.48 232.04C66.48 229.32 67.1067 226.88 68.36 224.72C69.64 222.56 71.36 220.88 73.52 219.68C75.7067 218.453 78.0933 217.84 80.68 217.84C83.64 217.84 86.2667 218.573 88.56 220.04C90.88 221.48 92.56 223.533 93.6 226.2H88.12C87.4 224.733 86.4 223.64 85.12 222.92C83.84 222.2 82.36 221.84 80.68 221.84C78.84 221.84 77.2 222.253 75.76 223.08C74.32 223.907 73.1867 225.093 72.36 226.64C71.56 228.187 71.16 229.987 71.16 232.04C71.16 234.093 71.56 235.893 72.36 237.44C73.1867 238.987 74.32 240.187 75.76 241.04C77.2 241.867 78.84 242.28 80.68 242.28C82.36 242.28 83.84 241.92 85.12 241.2C86.4 240.48 87.4 239.387 88.12 237.92H93.6C92.56 240.587 90.88 242.64 88.56 244.08C86.2667 245.52 83.64 246.24 80.68 246.24C78.0667 246.24 75.68 245.64 73.52 244.44C71.36 243.213 69.64 241.52 68.36 239.36C67.1067 237.2 66.48 234.76 66.48 232.04ZM113.378 246L106.978 234.88H103.498V246H98.9375V218.2H108.538C110.671 218.2 112.471 218.573 113.938 219.32C115.431 220.067 116.538 221.067 117.258 222.32C118.004 223.573 118.378 224.973 118.378 226.52C118.378 228.333 117.844 229.987 116.778 231.48C115.738 232.947 114.124 233.947 111.938 234.48L118.818 246H113.378ZM103.498 231.24H108.538C110.244 231.24 111.524 230.813 112.378 229.96C113.258 229.107 113.698 227.96 113.698 226.52C113.698 225.08 113.271 223.96 112.418 223.16C111.564 222.333 110.271 221.92 108.538 221.92H103.498V231.24ZM144.811 218.2L135.611 235.92V246H131.051V235.92L121.811 218.2H126.891L133.331 231.84L139.771 218.2H144.811ZM167.87 226.48C167.87 227.893 167.536 229.227 166.87 230.48C166.203 231.733 165.136 232.76 163.67 233.56C162.203 234.333 160.323 234.72 158.03 234.72H152.99V246H148.43V218.2H158.03C160.163 218.2 161.963 218.573 163.43 219.32C164.923 220.04 166.03 221.027 166.75 222.28C167.496 223.533 167.87 224.933 167.87 226.48ZM158.03 231C159.763 231 161.056 230.613 161.91 229.84C162.763 229.04 163.19 227.92 163.19 226.48C163.19 223.44 161.47 221.92 158.03 221.92H152.99V231H158.03ZM190.179 218.2V221.92H182.779V246H178.219V221.92H170.779V218.2H190.179ZM207.477 246.28C204.89 246.28 202.504 245.68 200.317 244.48C198.157 243.253 196.437 241.56 195.157 239.4C193.904 237.213 193.277 234.76 193.277 232.04C193.277 229.32 193.904 226.88 195.157 224.72C196.437 222.56 198.157 220.88 200.317 219.68C202.504 218.453 204.89 217.84 207.477 217.84C210.09 217.84 212.477 218.453 214.637 219.68C216.824 220.88 218.544 222.56 219.797 224.72C221.05 226.88 221.677 229.32 221.677 232.04C221.677 234.76 221.05 237.213 219.797 239.4C218.544 241.56 216.824 243.253 214.637 244.48C212.477 245.68 210.09 246.28 207.477 246.28ZM207.477 242.32C209.317 242.32 210.957 241.907 212.397 241.08C213.837 240.227 214.957 239.027 215.757 237.48C216.584 235.907 216.997 234.093 216.997 232.04C216.997 229.987 216.584 228.187 215.757 226.64C214.957 225.093 213.837 223.907 212.397 223.08C210.957 222.253 209.317 221.84 207.477 221.84C205.637 221.84 203.997 222.253 202.557 223.08C201.117 223.907 199.984 225.093 199.157 226.64C198.357 228.187 197.957 229.987 197.957 232.04C197.957 234.093 198.357 235.907 199.157 237.48C199.984 239.027 201.117 240.227 202.557 241.08C203.997 241.907 205.637 242.32 207.477 242.32ZM228.004 246.28C227.177 246.28 226.484 246 225.924 245.44C225.364 244.88 225.084 244.187 225.084 243.36C225.084 242.533 225.364 241.84 225.924 241.28C226.484 240.72 227.177 240.44 228.004 240.44C228.804 240.44 229.484 240.72 230.044 241.28C230.604 241.84 230.884 242.533 230.884 243.36C230.884 244.187 230.604 244.88 230.044 245.44C229.484 246 228.804 246.28 228.004 246.28ZM250.693 231.72C252.186 231.987 253.453 232.773 254.493 234.08C255.533 235.387 256.053 236.867 256.053 238.52C256.053 239.933 255.679 241.213 254.933 242.36C254.213 243.48 253.159 244.373 251.773 245.04C250.386 245.68 248.773 246 246.933 246H235.813V218.2H246.413C248.306 218.2 249.933 218.52 251.293 219.16C252.653 219.8 253.679 220.667 254.373 221.76C255.066 222.827 255.412 224.027 255.412 225.36C255.412 226.96 254.986 228.293 254.133 229.36C253.279 230.427 252.133 231.213 250.693 231.72ZM240.373 229.88H246.013C247.506 229.88 248.666 229.547 249.493 228.88C250.346 228.187 250.773 227.2 250.773 225.92C250.773 224.667 250.346 223.693 249.493 223C248.666 222.28 247.506 221.92 246.013 221.92H240.373V229.88ZM246.533 242.28C248.079 242.28 249.293 241.907 250.173 241.16C251.053 240.413 251.493 239.373 251.493 238.04C251.493 236.68 251.026 235.6 250.093 234.8C249.159 234 247.919 233.6 246.373 233.6H240.373V242.28H246.533ZM273.688 246.28C271.101 246.28 268.714 245.68 266.528 244.48C264.368 243.253 262.648 241.56 261.368 239.4C260.114 237.213 259.488 234.76 259.488 232.04C259.488 229.32 260.114 226.88 261.368 224.72C262.648 222.56 264.368 220.88 266.528 219.68C268.714 218.453 271.101 217.84 273.688 217.84C276.301 217.84 278.688 218.453 280.848 219.68C283.034 220.88 284.754 222.56 286.008 224.72C287.261 226.88 287.888 229.32 287.888 232.04C287.888 234.76 287.261 237.213 286.008 239.4C284.754 241.56 283.034 243.253 280.848 244.48C278.688 245.68 276.301 246.28 273.688 246.28ZM273.688 242.32C275.528 242.32 277.168 241.907 278.608 241.08C280.048 240.227 281.168 239.027 281.968 237.48C282.794 235.907 283.208 234.093 283.208 232.04C283.208 229.987 282.794 228.187 281.968 226.64C281.168 225.093 280.048 223.907 278.608 223.08C277.168 222.253 275.528 221.84 273.688 221.84C271.848 221.84 270.208 222.253 268.768 223.08C267.328 223.907 266.194 225.093 265.368 226.64C264.568 228.187 264.168 229.987 264.168 232.04C264.168 234.093 264.568 235.907 265.368 237.48C266.194 239.027 267.328 240.227 268.768 241.08C270.208 241.907 271.848 242.32 273.688 242.32ZM310.335 218.2V221.92H302.935V246H298.375V221.92H290.935V218.2H310.335Z" fill="black"/>
</svg>
