<svg width="107" height="108" viewBox="0 0 107 108" fill="none" xmlns="http://www.w3.org/2000/svg">
<path d="M52.6641 66.2841H57.6797V71.2997H52.6641V66.2841ZM52.6641 76.3153H57.6797V81.3309H52.6641V76.3153ZM52.6641 86.3466H57.6797V91.3622H52.6641V86.3466Z" fill="#3C50E0"/>
<path d="M61.0234 31.1747H66.0391V49.5653H61.0234V31.1747ZM76.0703 19.4716H81.0859V49.5653H76.0703V19.4716ZM91.1172 21.1434H96.1328V49.5653H91.1172V21.1434Z" fill="#ECF0F1"/>
<path d="M56.0078 41.2059H61.0234V49.5653H56.0078V41.2059ZM71.0547 34.5184H76.0703V49.5653H71.0547V34.5184ZM86.1016 14.4559H91.1172V49.5653H86.1016V14.4559Z" fill="#E74C3C"/>
<path d="M21.7344 39.5341C26.8128 39.5341 30.9297 35.4172 30.9297 30.3387C30.9297 25.2603 26.8128 21.1434 21.7344 21.1434C16.6559 21.1434 12.5391 25.2603 12.5391 30.3387C12.5391 35.4172 16.6559 39.5341 21.7344 39.5341Z" fill="#F0C9AE"/>
<path d="M53.8896 25.2697C53.3453 24.826 52.6556 24.6003 51.9543 24.6364C51.253 24.6726 50.5902 24.968 50.0944 25.4653L31.0634 44.5497H14.2109C12.4373 44.5497 10.7363 45.2543 9.48216 46.5084C8.22801 47.7626 7.52344 49.4636 7.52344 51.2372V71.2997C7.52344 72.1865 7.87572 73.037 8.5028 73.6641C9.12987 74.2912 9.98037 74.6435 10.8672 74.6435C11.3206 74.6437 11.7571 74.8161 12.0882 75.1259C12.4194 75.4356 12.6206 75.8596 12.6511 76.312L14.0036 96.6002C14.06 97.4468 14.4362 98.2402 15.0558 98.8198C15.6754 99.3994 16.4922 99.7218 17.3407 99.7216H24.4595C25.308 99.7218 26.1248 99.3994 26.7444 98.8198C27.364 98.2402 27.7402 97.4468 27.7966 96.6002L29.1491 76.312C29.1797 75.8596 29.3808 75.4356 29.712 75.1259C30.0432 74.8161 30.4796 74.6437 30.933 74.6435C31.8199 74.6435 32.6703 74.2912 33.2974 73.6641C33.9245 73.037 34.2768 72.1865 34.2768 71.2997V55.7463L54.3627 29.1752C54.804 28.5893 55.0012 27.8552 54.9129 27.1271C54.8247 26.3989 54.458 25.7332 53.8896 25.2697Z" fill="#039BE5" fill-opacity="0.8"/>
<path d="M21.7344 56.2528L17.5547 44.5497H25.9141L21.7344 56.2528Z" fill="#ECF0F1"/>
<path d="M61.0234 50.4012H56.0078C55.7861 50.4012 55.5735 50.3132 55.4167 50.1564C55.2599 49.9996 55.1719 49.787 55.1719 49.5653V41.2059C55.1719 40.9842 55.2599 40.7716 55.4167 40.6148C55.5735 40.4581 55.7861 40.37 56.0078 40.37H61.0234C61.2451 40.37 61.4578 40.4581 61.6145 40.6148C61.7713 40.7716 61.8594 40.9842 61.8594 41.2059V49.5653C61.8594 49.787 61.7713 49.9996 61.6145 50.1564C61.4578 50.3132 61.2451 50.4012 61.0234 50.4012ZM56.8438 48.7294H60.1875V42.0419H56.8438V48.7294Z" fill="#212E3A"/>
<path d="M66.0391 50.4012H61.0234C60.8017 50.4012 60.5891 50.3132 60.4323 50.1564C60.2756 49.9996 60.1875 49.787 60.1875 49.5653V31.1747C60.1875 30.953 60.2756 30.7404 60.4323 30.5836C60.5891 30.4268 60.8017 30.3387 61.0234 30.3387H66.0391C66.2608 30.3387 66.4734 30.4268 66.6302 30.5836C66.7869 30.7404 66.875 30.953 66.875 31.1747V49.5653C66.875 49.787 66.7869 49.9996 66.6302 50.1564C66.4734 50.3132 66.2608 50.4012 66.0391 50.4012ZM61.8594 48.7294H65.2031V32.0106H61.8594V48.7294ZM76.0703 50.4012H71.0547C70.833 50.4012 70.6204 50.3132 70.4636 50.1564C70.3068 49.9996 70.2188 49.787 70.2188 49.5653V34.5184C70.2188 34.2967 70.3068 34.0841 70.4636 33.9273C70.6204 33.7706 70.833 33.6825 71.0547 33.6825H76.0703C76.292 33.6825 76.5046 33.7706 76.6614 33.9273C76.8182 34.0841 76.9062 34.2967 76.9062 34.5184V49.5653C76.9062 49.787 76.8182 49.9996 76.6614 50.1564C76.5046 50.3132 76.292 50.4012 76.0703 50.4012ZM71.8906 48.7294H75.2344V35.3544H71.8906V48.7294Z" fill="#212E3A"/>
<path d="M81.0859 50.4012H76.0703C75.8486 50.4012 75.636 50.3132 75.4792 50.1564C75.3224 49.9996 75.2344 49.787 75.2344 49.5653V19.4716C75.2344 19.2499 75.3224 19.0372 75.4792 18.8805C75.636 18.7237 75.8486 18.6356 76.0703 18.6356H81.0859C81.3076 18.6356 81.5203 18.7237 81.677 18.8805C81.8338 19.0372 81.9219 19.2499 81.9219 19.4716V49.5653C81.9219 49.787 81.8338 49.9996 81.677 50.1564C81.5203 50.3132 81.3076 50.4012 81.0859 50.4012ZM76.9062 48.7294H80.25V20.3075H76.9062V48.7294ZM91.1172 50.4012H86.1016C85.8799 50.4012 85.6672 50.3132 85.5105 50.1564C85.3537 49.9996 85.2656 49.787 85.2656 49.5653V14.4559C85.2656 14.2342 85.3537 14.0216 85.5105 13.8648C85.6672 13.7081 85.8799 13.62 86.1016 13.62H91.1172C91.3389 13.62 91.5515 13.7081 91.7083 13.8648C91.8651 14.0216 91.9531 14.2342 91.9531 14.4559V49.5653C91.9531 49.787 91.8651 49.9996 91.7083 50.1564C91.5515 50.3132 91.3389 50.4012 91.1172 50.4012ZM86.9375 48.7294H90.2812V15.2919H86.9375V48.7294Z" fill="#212E3A"/>
<path d="M96.1328 50.4012H91.1172C90.8955 50.4012 90.6829 50.3132 90.5261 50.1564C90.3693 49.9996 90.2812 49.787 90.2812 49.5653V21.1434C90.2812 20.9217 90.3693 20.7091 90.5261 20.5523C90.6829 20.3956 90.8955 20.3075 91.1172 20.3075H96.1328C96.3545 20.3075 96.5671 20.3956 96.7239 20.5523C96.8807 20.7091 96.9688 20.9217 96.9688 21.1434V49.5653C96.9688 49.787 96.8807 49.9996 96.7239 50.1564C96.5671 50.3132 96.3545 50.4012 96.1328 50.4012ZM91.9531 48.7294H95.2969V21.9794H91.9531V48.7294Z" fill="#212E3A"/>
<path d="M99.4766 50.4012H49.3203C49.0986 50.4012 48.886 50.3132 48.7292 50.1564C48.5724 49.9996 48.4844 49.787 48.4844 49.5653C48.4844 49.3436 48.5724 49.131 48.7292 48.9742C48.886 48.8174 49.0986 48.7294 49.3203 48.7294H99.4766C99.6983 48.7294 99.9109 48.8174 100.068 48.9742C100.224 49.131 100.312 49.3436 100.312 49.5653C100.312 49.787 100.224 49.9996 100.068 50.1564C99.9109 50.3132 99.6983 50.4012 99.4766 50.4012ZM87.7734 55.4169H61.0234C60.8017 55.4169 60.5891 55.3288 60.4323 55.172C60.2756 55.0153 60.1875 54.8026 60.1875 54.5809C60.1875 54.3592 60.2756 54.1466 60.4323 53.9898C60.5891 53.8331 60.8017 53.745 61.0234 53.745H87.7734C87.9951 53.745 88.2078 53.8331 88.3645 53.9898C88.5213 54.1466 88.6094 54.3592 88.6094 54.5809C88.6094 54.8026 88.5213 55.0153 88.3645 55.172C88.2078 55.3288 87.9951 55.4169 87.7734 55.4169ZM87.7734 72.1356H62.6953C62.4736 72.1356 62.261 72.0476 62.1042 71.8908C61.9474 71.734 61.8594 71.5214 61.8594 71.2997C61.8594 71.078 61.9474 70.8654 62.1042 70.7086C62.261 70.5518 62.4736 70.4637 62.6953 70.4637H87.7734C87.9951 70.4637 88.2078 70.5518 88.3645 70.7086C88.5213 70.8654 88.6094 71.078 88.6094 71.2997C88.6094 71.5214 88.5213 71.734 88.3645 71.8908C88.2078 72.0476 87.9951 72.1356 87.7734 72.1356ZM87.7734 68.7919H62.6953C62.4736 68.7919 62.261 68.7038 62.1042 68.547C61.9474 68.3903 61.8594 68.1776 61.8594 67.9559C61.8594 67.7342 61.9474 67.5216 62.1042 67.3648C62.261 67.2081 62.4736 67.12 62.6953 67.12H87.7734C87.9951 67.12 88.2078 67.2081 88.3645 67.3648C88.5213 67.5216 88.6094 67.7342 88.6094 67.9559C88.6094 68.1776 88.5213 68.3903 88.3645 68.547C88.2078 68.7038 87.9951 68.7919 87.7734 68.7919ZM87.7734 82.1669H62.6953C62.4736 82.1669 62.261 82.0788 62.1042 81.922C61.9474 81.7653 61.8594 81.5526 61.8594 81.3309C61.8594 81.1092 61.9474 80.8966 62.1042 80.7398C62.261 80.5831 62.4736 80.495 62.6953 80.495H87.7734C87.9951 80.495 88.2078 80.5831 88.3645 80.7398C88.5213 80.8966 88.6094 81.1092 88.6094 81.3309C88.6094 81.5526 88.5213 81.7653 88.3645 81.922C88.2078 82.0788 87.9951 82.1669 87.7734 82.1669ZM87.7734 78.8231H62.6953C62.4736 78.8231 62.261 78.735 62.1042 78.5783C61.9474 78.4215 61.8594 78.2089 61.8594 77.9872C61.8594 77.7655 61.9474 77.5529 62.1042 77.3961C62.261 77.2393 62.4736 77.1512 62.6953 77.1512H87.7734C87.9951 77.1512 88.2078 77.2393 88.3645 77.3961C88.5213 77.5529 88.6094 77.7655 88.6094 77.9872C88.6094 78.2089 88.5213 78.4215 88.3645 78.5783C88.2078 78.735 87.9951 78.8231 87.7734 78.8231ZM87.7734 88.8544H62.6953C62.4736 88.8544 62.261 88.7663 62.1042 88.6095C61.9474 88.4528 61.8594 88.2401 61.8594 88.0184C61.8594 87.7967 61.9474 87.5841 62.1042 87.4273C62.261 87.2706 62.4736 87.1825 62.6953 87.1825H87.7734C87.9951 87.1825 88.2078 87.2706 88.3645 87.4273C88.5213 87.5841 88.6094 87.7967 88.6094 88.0184C88.6094 88.2401 88.5213 88.4528 88.3645 88.6095C88.2078 88.7663 87.9951 88.8544 87.7734 88.8544ZM87.7734 92.1981H62.6953C62.4736 92.1981 62.261 92.11 62.1042 91.9533C61.9474 91.7965 61.8594 91.5839 61.8594 91.3622C61.8594 91.1405 61.9474 90.9279 62.1042 90.7711C62.261 90.6143 62.4736 90.5262 62.6953 90.5262H87.7734C87.9951 90.5262 88.2078 90.6143 88.3645 90.7711C88.5213 90.9279 88.6094 91.1405 88.6094 91.3622C88.6094 91.5839 88.5213 91.7965 88.3645 91.9533C88.2078 92.11 87.9951 92.1981 87.7734 92.1981ZM50.9922 25.5739C50.7705 25.5739 50.5579 25.4858 50.4011 25.3291C50.2443 25.1723 50.1562 24.9597 50.1562 24.738V14.4559C50.1562 14.2342 50.2443 14.0216 50.4011 13.8648C50.5579 13.7081 50.7705 13.62 50.9922 13.62C51.2139 13.62 51.4265 13.7081 51.5833 13.8648C51.7401 14.0216 51.8281 14.2342 51.8281 14.4559V24.738C51.8281 24.9597 51.7401 25.1723 51.5833 25.3291C51.4265 25.4858 51.2139 25.5739 50.9922 25.5739Z" fill="#212E3A"/>
<path d="M50.9922 52.0731C50.7705 52.0731 50.5579 51.985 50.4011 51.8283C50.2443 51.6715 50.1562 51.4589 50.1562 51.2372V33.6825C50.1562 33.4608 50.2443 33.2482 50.4011 33.0914C50.5579 32.9346 50.7705 32.8466 50.9922 32.8466C51.2139 32.8466 51.4265 32.9346 51.5833 33.0914C51.7401 33.2482 51.8281 33.4608 51.8281 33.6825V51.2372C51.8281 51.4589 51.7401 51.6715 51.5833 51.8283C51.4265 51.985 51.2139 52.0731 50.9922 52.0731ZM20.8984 100.557C20.6767 100.557 20.4641 100.469 20.3073 100.313C20.1506 100.156 20.0625 99.9433 20.0625 99.7216V79.6591C20.0625 79.4374 20.1506 79.2247 20.3073 79.068C20.4641 78.9112 20.6767 78.8231 20.8984 78.8231C21.1201 78.8231 21.3328 78.9112 21.4895 79.068C21.6463 79.2247 21.7344 79.4374 21.7344 79.6591V99.7216C21.7344 99.9433 21.6463 100.156 21.4895 100.313C21.3328 100.469 21.1201 100.557 20.8984 100.557ZM21.7344 40.37C16.2021 40.37 11.7031 35.871 11.7031 30.3387C11.7031 24.8065 16.2021 20.3075 21.7344 20.3075C27.2666 20.3075 31.7656 24.8065 31.7656 30.3387C31.7656 35.871 27.2666 40.37 21.7344 40.37ZM21.7344 21.9794C17.125 21.9794 13.375 25.7294 13.375 30.3387C13.375 34.9481 17.125 38.6981 21.7344 38.6981C26.3437 38.6981 30.0938 34.9481 30.0938 30.3387C30.0938 25.7294 26.3437 21.9794 21.7344 21.9794ZM57.6797 72.1356H52.6641C52.4424 72.1356 52.2297 72.0476 52.073 71.8908C51.9162 71.734 51.8281 71.5214 51.8281 71.2997V66.2841C51.8281 66.0624 51.9162 65.8497 52.073 65.693C52.2297 65.5362 52.4424 65.4481 52.6641 65.4481H57.6797C57.9014 65.4481 58.114 65.5362 58.2708 65.693C58.4276 65.8497 58.5156 66.0624 58.5156 66.2841V71.2997C58.5156 71.5214 58.4276 71.734 58.2708 71.8908C58.114 72.0476 57.9014 72.1356 57.6797 72.1356ZM53.5 70.4637H56.8438V67.12H53.5V70.4637ZM57.6797 82.1669H52.6641C52.4424 82.1669 52.2297 82.0788 52.073 81.922C51.9162 81.7653 51.8281 81.5526 51.8281 81.3309V76.3153C51.8281 76.0936 51.9162 75.881 52.073 75.7242C52.2297 75.5674 52.4424 75.4794 52.6641 75.4794H57.6797C57.9014 75.4794 58.114 75.5674 58.2708 75.7242C58.4276 75.881 58.5156 76.0936 58.5156 76.3153V81.3309C58.5156 81.5526 58.4276 81.7653 58.2708 81.922C58.114 82.0788 57.9014 82.1669 57.6797 82.1669ZM53.5 80.495H56.8438V77.1512H53.5V80.495ZM57.6797 92.1981H52.6641C52.4424 92.1981 52.2297 92.11 52.073 91.9533C51.9162 91.7965 51.8281 91.5839 51.8281 91.3622V86.3466C51.8281 86.1249 51.9162 85.9122 52.073 85.7555C52.2297 85.5987 52.4424 85.5106 52.6641 85.5106H57.6797C57.9014 85.5106 58.114 85.5987 58.2708 85.7555C58.4276 85.9122 58.5156 86.1249 58.5156 86.3466V91.3622C58.5156 91.5839 58.4276 91.7965 58.2708 91.9533C58.114 92.11 57.9014 92.1981 57.6797 92.1981ZM53.5 90.5262H56.8438V87.1825H53.5V90.5262Z" fill="#212E3A"/>
<path d="M24.4579 100.558H17.339C16.2793 100.555 15.2597 100.152 14.486 99.4274C13.7122 98.7032 13.2417 97.7127 13.1694 96.6554L11.8151 76.3672C11.799 76.1266 11.6922 75.9012 11.5162 75.7364C11.3403 75.5716 11.1083 75.4797 10.8672 75.4794C9.75894 75.4785 8.69633 75.0379 7.91268 74.2542C7.12903 73.4706 6.68839 72.408 6.6875 71.2997V51.2372C6.6875 47.0893 10.063 43.7138 14.2109 43.7138H30.7157L49.4992 24.8734C50.1405 24.2278 50.9993 23.8442 51.9081 23.7975C52.8169 23.7509 53.7105 24.0444 54.4145 24.621C55.1544 25.2188 55.632 26.0815 55.7459 27.0259C55.8599 27.9702 55.6012 28.9218 55.0247 29.6784L35.1094 56.0272V71.2997C35.1094 73.6053 33.2352 75.4794 30.9297 75.4794C30.6886 75.4797 30.4566 75.5716 30.2806 75.7364C30.1047 75.9012 29.9978 76.1266 29.9817 76.3672L28.6275 96.6554C28.5552 97.7127 28.0847 98.7032 27.3109 99.4274C26.5371 100.152 25.5176 100.555 24.4579 100.558ZM14.2109 45.3857C10.9842 45.3857 8.35937 48.0105 8.35937 51.2372V71.2997C8.35937 72.6824 9.48455 73.8076 10.8672 73.8076C12.2431 73.8076 13.3934 74.8842 13.4837 76.2569L14.8379 96.5451C14.9248 97.8575 16.0232 98.8857 17.339 98.8857H24.4579C25.7736 98.8857 26.872 97.8575 26.959 96.5451L28.3132 76.2569C28.3589 75.5934 28.6541 74.9719 29.1396 74.5175C29.6251 74.063 30.2647 73.8094 30.9297 73.8076C32.3123 73.8076 33.4375 72.6824 33.4375 71.2997V55.7463C33.4375 55.5657 33.496 55.3868 33.608 55.2414L53.6956 28.6686C54.009 28.2567 54.1495 27.739 54.0874 27.2252C54.0253 26.7114 53.7654 26.242 53.3629 25.9167C52.9796 25.6017 52.4923 25.4413 51.9968 25.467C51.5013 25.4926 51.0333 25.7025 50.6846 26.0555L31.6569 45.1416C31.4988 45.2977 31.2857 45.3854 31.0634 45.3857H14.2109Z" fill="#212E3A"/>
<path d="M21.7344 57.0887C21.562 57.0883 21.394 57.0348 21.2531 56.9355C21.1122 56.8361 21.0053 56.6959 20.9469 56.5337L16.7672 44.8306C16.7222 44.7044 16.7082 44.5693 16.7263 44.4366C16.7444 44.3039 16.7942 44.1774 16.8714 44.068C16.9486 43.9585 17.0509 43.8692 17.1698 43.8075C17.2888 43.7459 17.4207 43.7137 17.5547 43.7137H25.9141C26.048 43.7137 26.18 43.7459 26.2989 43.8075C26.4178 43.8692 26.5202 43.9585 26.5974 44.068C26.6745 44.1774 26.7243 44.3039 26.7424 44.4366C26.7605 44.5693 26.7465 44.7044 26.7015 44.8306L22.5218 56.5337C22.4634 56.6959 22.3566 56.8361 22.2157 56.9355C22.0748 57.0348 21.9067 57.0883 21.7344 57.0887ZM18.7417 45.3856L21.7344 53.7684L24.727 45.3856H18.7417Z" fill="#212E3A"/>
</svg>
