<svg width="107" height="108" viewBox="0 0 107 108" fill="none" xmlns="http://www.w3.org/2000/svg">
<g clip-path="url(#clip0_13_175)">
<path opacity="0.3" d="M26.7767 85.7113C26.7767 85.7113 38.4665 97.8558 65.8317 87.5838C65.8317 87.5838 54.1152 103.848 35.1495 106.282L26.7767 85.7113ZM87.4457 57.2225C87.4457 57.2225 94.3204 92.158 105.127 92.158H87.4457V57.2225Z" fill="#3C50E0"/>
<path d="M56.068 33.7092C55.5865 34.2442 55.0782 34.7257 54.5432 35.1537C53.0987 37.2135 50.611 41.1457 50.4505 44.1417C50.4505 44.1417 50.1295 46.7632 46.866 46.7632H44.1642C40.9007 46.7632 40.5797 44.1417 40.5797 44.1417C40.4192 40.9852 37.6105 36.7052 36.2462 34.7525C33.384 32.1845 31.5917 28.4662 31.5917 24.32C31.5917 16.5625 37.878 10.303 45.6087 10.303H46.0367C48.7385 10.3832 51.253 11.2392 53.3662 12.6302C55.319 13.9142 56.924 15.6797 58.0207 17.7662C59.064 19.719 59.6257 21.9392 59.6257 24.32C59.6525 27.9312 58.2882 31.2215 56.068 33.7092Z" fill="#3C50E0"/>
<path d="M3.10296 53.9055C3.23671 53.7183 3.3972 53.5043 3.45071 53.424C3.5577 53.2368 3.85195 52.4878 4.0927 51.8993C5.1627 49.1975 6.25945 46.6563 7.6237 45.4258C8.45296 44.6768 8.5332 43.259 8.45296 42.4565C5.3232 39.193 6.33971 34.8328 7.4632 32.666C7.65045 22.3673 10.1115 17.6325 11.877 15.5193C10.7535 14.797 9.65671 13.7003 9.81721 12.1488C10.058 9.90179 12.8935 8.05604 18.9925 6.13004C22.6305 4.97979 26.1615 4.25754 26.9105 4.09704C35.4437 0.432286 43.7094 0.111286 49.1932 0.512536C55.1317 0.699786 60.9097 2.54554 65.8317 5.80904C70.8607 8.83179 74.4184 12.7908 76.4782 17.579C78.8857 22.1265 80.1429 27.2625 80.1429 32.4253C80.1429 39.4873 77.8692 46.2015 73.5892 51.7923C73.1344 52.3808 72.3052 52.4878 71.7167 52.033C71.1282 51.5783 71.0212 50.749 71.4759 50.1605C75.4082 45.0245 77.4679 38.8988 77.4679 32.4253C77.4679 27.6638 76.2909 22.9558 74.0974 18.756C74.0707 18.7293 74.0707 18.6758 74.0439 18.649C72.2249 14.3423 69.0149 10.7845 64.4407 8.05604C64.4139 8.05604 64.4139 8.02929 64.3872 8.02929C59.8397 5.00654 54.5432 3.32129 49.0862 3.16079H49.0327C43.8432 2.78629 35.952 3.05379 27.8735 6.61154C27.7932 6.63829 27.6862 6.69179 27.606 6.69179C27.5792 6.69179 23.6737 7.46754 19.795 8.69804C12.7597 10.9183 12.519 12.4163 12.519 12.4163C12.519 12.4163 12.626 13.0583 14.766 13.9678C15.2475 14.1818 15.5685 14.6365 15.5685 15.1715C15.5952 15.6798 15.3009 16.1613 14.8195 16.402C14.766 16.4288 10.2987 19.0503 10.1382 33.0138C10.1382 33.2545 10.0847 33.4685 9.95096 33.6825C9.92421 33.736 7.5167 37.9358 10.6465 40.8248C10.8605 41.012 10.9942 41.2795 11.0477 41.547C11.0744 41.7075 11.7165 45.3188 9.41595 47.3785C8.39946 48.288 7.27596 51.1503 6.60721 52.8355C6.17921 53.9055 5.9652 54.4673 5.72446 54.815C5.61745 54.9755 5.48371 55.1628 5.26971 55.4303C3.71821 57.5168 3.37045 58.4263 3.3437 58.8008C3.37045 58.8008 3.3972 58.8008 3.42395 58.8275C6.8747 59.4428 8.88096 61.342 8.9612 61.4223C9.30895 61.7433 9.4427 62.198 9.36246 62.6528C9.36246 62.7063 8.31921 68.4308 10.9675 69.26C11.5827 69.4473 11.9572 70.0358 11.9037 70.6778C11.8235 71.4 11.877 73.5668 12.9737 74.1285C13.375 74.3425 13.6425 74.7438 13.696 75.1718L13.9902 77.9805C14.017 78.3283 13.9367 78.6493 13.7227 78.9168C12.7865 80.1205 10.6197 83.7585 11.7432 86.0055C12.5725 87.664 15.2742 88.5468 19.5275 88.5735L27.82 85.31C28.4887 85.0425 29.2645 85.3635 29.5319 86.0323L37.2627 104.222C41.6497 103.34 59.1442 98.9258 65.0292 84.347C65.2967 83.6515 66.0724 83.3305 66.7679 83.598C67.4634 83.8655 67.7844 84.6413 67.5169 85.3368C64.4942 92.8535 58.1812 98.9793 49.2734 103.072C42.6127 106.148 36.8882 107.004 36.6474 107.031C36.5939 107.031 36.5137 107.058 36.4602 107.058C35.9252 107.058 35.4437 106.737 35.2297 106.255L27.606 88.2793L20.3032 91.1683C20.1427 91.2218 19.9822 91.2485 19.8217 91.2753H19.6345C14.1507 91.2753 10.7 89.911 9.38921 87.236C7.62371 83.6783 10.3522 79.211 11.3419 77.7933L11.1814 76.108C9.62995 74.8508 9.3357 72.7108 9.30895 71.4268C6.5537 69.8218 6.31296 65.7825 6.68745 63.0005C6.01871 62.5458 4.76145 61.8235 3.02271 61.5025C1.63171 61.2618 1.12346 60.4058 0.936203 59.951C0.133705 58.1588 1.63171 55.885 3.10296 53.9055Z" fill="#3C50E0"/>
<path d="M66.7947 81.9128L35.8717 70.2498C35.3367 70.0358 34.8285 69.7683 34.347 69.4473L15.7825 56.7143C14.8462 56.0723 14.338 55.029 14.3915 53.8788C14.445 52.7553 15.087 51.7388 16.0767 51.2038C19.7682 49.1708 23.4865 49.9733 25.7602 50.8293L24.396 48.0205C24.0482 47.325 24.0482 46.5493 24.3692 45.8538C24.6902 45.1583 25.2787 44.6233 26.0277 44.436C26.9372 44.1685 27.82 44.0615 28.7027 44.0615C34.4005 44.0615 37.2627 49.3848 37.6105 50.0535L44.1642 61.1815H48.15C48.364 61.1815 48.5512 61.235 48.7117 61.3153C47.2672 60.3523 46.0635 58.6135 45.2342 56.1793C44.8865 55.2163 45.047 54.1195 45.6622 53.2903C46.2507 52.461 47.2405 51.9528 48.257 51.9528H67.8112C70.0315 51.9528 72.118 52.8088 73.6962 54.387L78.8055 59.4963C79.287 59.9778 79.9022 60.3255 80.5442 60.486V58.6135C80.5442 57.8645 81.1327 57.276 81.8817 57.276H86.1082V57.2225C86.1082 56.4735 86.6967 55.885 87.4457 55.885H105.127C105.876 55.885 106.465 56.4735 106.465 57.2225C106.465 57.9715 105.876 58.56 105.127 58.56H88.7832V90.8205H105.127C105.876 90.8205 106.465 91.409 106.465 92.158C106.465 92.907 105.876 93.4955 105.127 93.4955H87.4457C86.6967 93.4955 86.1082 92.907 86.1082 92.158V89.59H81.8817C81.1327 89.59 80.5442 89.0015 80.5442 88.2525V82.9025H72.1715C70.3257 82.9025 68.5067 82.5815 66.7947 81.9128ZM35.2297 51.3375C35.203 51.3108 35.203 51.284 35.1762 51.2305C35.1495 51.177 32.9025 46.7098 28.6492 46.7098C28.0607 46.7098 27.4455 46.79 26.8302 46.9505L29.7727 52.9693L39.59 58.7473L35.2297 51.3375ZM83.2192 86.915H86.1082V59.951H83.2192V86.915ZM80.5442 63.2145C79.18 63.0005 77.896 62.3585 76.9062 61.3688L71.797 56.2595C70.727 55.1895 69.3092 54.601 67.8112 54.601H48.257C48.0162 54.601 47.9092 54.7348 47.8557 54.815C47.8022 54.8953 47.722 55.0558 47.8022 55.2965C48.3372 56.8748 49.5677 59.523 51.6007 59.523H65.805C66.554 59.523 67.1425 60.1115 67.1425 60.8605C67.1425 61.6095 66.554 62.198 65.805 62.198H51.6007C50.6912 62.198 49.8352 61.9573 49.0327 61.5025C49.327 61.7433 49.5142 62.1178 49.5142 62.5458C49.5142 63.2948 48.9257 63.8833 48.1767 63.8833H43.0942C43.0407 63.8833 43.014 63.8565 42.9605 63.8565C42.9337 63.8565 42.907 63.8298 42.8802 63.8298C42.8535 63.8298 42.8 63.803 42.7732 63.803L42.6127 63.7228L33.6782 58.4798L28.034 55.1628L26.4825 54.2533C26.4557 54.2533 26.4557 54.2265 26.429 54.2265C26.3755 54.1998 21.6942 51.2305 17.3072 53.638C17.0665 53.7718 17.013 53.9858 17.013 54.0928C17.013 54.1998 17.0397 54.4138 17.2537 54.5743L35.8182 67.3073C36.1125 67.5213 36.4335 67.6818 36.7812 67.8155L67.731 79.425C69.1487 79.96 70.6467 80.2275 72.1715 80.2275H80.5442V63.2145Z" fill="#3C50E0"/>
<path d="M90.3615 85.6043C90.3615 83.4108 92.127 81.6453 94.3205 81.6453C96.514 81.6453 98.2795 83.4108 98.2795 85.6043C98.2795 87.7978 96.514 89.5633 94.3205 89.5633C92.127 89.5633 90.3615 87.7978 90.3615 85.6043ZM95.6045 85.6043C95.6045 84.882 95.016 84.3203 94.3205 84.3203C93.5983 84.3203 93.0365 84.9088 93.0365 85.6043C93.0365 86.2998 93.625 86.8883 94.3205 86.8883C95.0428 86.915 95.6045 86.3265 95.6045 85.6043ZM37.9048 24.5073C38.1455 24.1328 38.5735 23.9188 39.0283 23.9188H39.2958C40.2588 23.9188 40.5263 23.785 40.5263 23.7583C40.6065 23.7048 40.9008 23.5175 41.4625 22.822C41.7033 22.501 42.1045 22.3138 42.5058 22.3138C42.907 22.3138 43.2815 22.4743 43.549 22.7953C44.084 23.4373 44.3783 23.6245 44.4585 23.6513C44.4585 23.6513 44.7528 23.785 45.6623 23.785C46.5985 23.785 46.8928 23.6513 46.8928 23.6513C46.973 23.5978 47.2673 23.4105 47.8023 22.7418C48.043 22.4208 48.4443 22.2335 48.8455 22.2335C49.2468 22.2335 49.6213 22.4208 49.8888 22.715C50.4505 23.3838 50.7448 23.571 50.7983 23.6245C50.7983 23.6245 51.0658 23.7583 52.0288 23.7583H52.2963C52.751 23.7583 53.1523 23.9723 53.4198 24.3468C53.6605 24.7213 53.714 25.176 53.5535 25.604C52.3498 28.5198 51.3333 31.1948 50.5308 33.522C49.7015 36.0098 49.113 38.5243 48.9793 42.7775C48.9525 43.4998 48.364 44.0883 47.6418 44.0883H43.335C42.6128 44.0883 42.0243 43.5265 41.9975 42.7775C41.8638 38.23 41.5428 35.7423 40.7938 33.5755C40.018 31.2483 39.0015 28.6 37.7978 25.711C37.6105 25.3633 37.6373 24.8818 37.9048 24.5073ZM43.3083 32.773C44.0573 34.9933 44.4318 37.4008 44.5923 41.44H46.331C46.545 37.6148 47.1335 35.1538 47.9628 32.7195C48.6315 30.7935 49.4073 28.6535 50.3435 26.3263C50.0225 26.246 49.755 26.139 49.5143 26.032C49.3003 25.8983 49.0595 25.7645 48.8188 25.5505C48.578 25.7645 48.364 25.8983 48.1233 26.032C47.5348 26.353 46.7323 26.4868 45.6355 26.4868C44.5655 26.4868 43.7898 26.353 43.2013 26.0588C42.9873 25.9518 42.7733 25.7913 42.5325 25.604C42.2918 25.818 42.051 25.9785 41.8103 26.1123C41.5695 26.246 41.2753 26.353 40.9275 26.4333C41.8638 28.7605 42.6663 30.8738 43.3083 32.773ZM42.0778 48.6358H48.792C49.541 48.6358 50.1295 49.2243 50.1295 49.9733C50.1295 50.7223 49.541 51.3108 48.792 51.3108H42.0778C41.3288 51.3108 40.7403 50.7223 40.7403 49.9733C40.7403 49.2243 41.3288 48.6358 42.0778 48.6358Z" fill="#3C50E0"/>
<path d="M34.4272 40.37C34.7482 40.37 35.0959 40.2095 35.2832 39.9153C35.6042 39.4338 35.4972 38.7918 35.0157 38.4708C34.4807 38.0963 33.9724 37.695 33.4909 37.2938C33.0629 36.9193 32.3942 36.9728 32.0197 37.4008C31.6452 37.8288 31.6987 38.4975 32.1267 38.872C32.6617 39.3535 33.2502 39.7815 33.8387 40.2095C34.0259 40.3165 34.2132 40.37 34.4272 40.37ZM56.8704 40.3433C57.0844 40.3433 57.2984 40.2898 57.4589 40.156C58.0474 39.7548 58.6359 39.3 59.1709 38.8185C59.5989 38.444 59.6524 37.7753 59.2779 37.3473C58.9034 36.9193 58.2347 36.8658 57.8067 37.2403C57.3252 37.6683 56.8169 38.0695 56.2819 38.444C55.8004 38.765 55.6934 39.4338 56.0144 39.8885C56.2284 40.1828 56.5494 40.3433 56.8704 40.3433ZM30.0134 36.1168C30.2274 36.1168 30.4414 36.0365 30.6287 35.9028C31.0834 35.555 31.1904 34.913 30.8427 34.4315C30.4682 33.9233 30.0937 33.3615 29.7727 32.8265C29.4784 32.3183 28.8364 32.1578 28.3549 32.452C27.8734 32.7463 27.6862 33.3883 27.9804 33.8698C28.3549 34.485 28.7562 35.1003 29.1842 35.6888C29.3714 35.983 29.6924 36.1168 30.0134 36.1168ZM61.2842 36.0633C61.6052 36.0633 61.9262 35.9295 62.1134 35.6353C62.5414 35.0468 62.9427 34.4315 63.2904 33.8163C63.5847 33.308 63.3974 32.666 62.9159 32.3985C62.4077 32.1043 61.7657 32.2915 61.4982 32.773C61.1772 33.3348 60.8294 33.8698 60.4282 34.4048C60.0804 34.8595 60.1874 35.5283 60.6422 35.876C60.8294 35.983 61.0702 36.0633 61.2842 36.0633ZM27.2314 30.6598C27.3384 30.6598 27.4454 30.633 27.5524 30.6063C28.1142 30.4458 28.4084 29.8573 28.2479 29.2955C28.0607 28.6803 27.9002 28.0383 27.7932 27.423C27.6862 26.8613 27.1512 26.4868 26.5627 26.5938C26.0009 26.7008 25.6264 27.2358 25.7334 27.8243C25.8672 28.5198 26.0544 29.242 26.2684 29.9375C26.3754 30.3655 26.7767 30.6598 27.2314 30.6598ZM64.0394 30.5795C64.4942 30.5795 64.8954 30.2853 65.0292 29.8305C65.2432 29.135 65.4037 28.4395 65.5374 27.7173C65.6444 27.1555 65.2699 26.5938 64.7082 26.5135C64.1464 26.4065 63.5847 26.781 63.5044 27.3428C63.3974 27.9848 63.2369 28.6 63.0497 29.2153C62.8892 29.777 63.1834 30.3388 63.7452 30.526C63.8254 30.5795 63.9324 30.5795 64.0394 30.5795ZM26.4557 24.5875C27.0174 24.5875 27.4722 24.1595 27.4989 23.5978C27.5257 22.9558 27.6059 22.3138 27.6862 21.6718C27.7664 21.11 27.3919 20.575 26.8302 20.468C26.2684 20.3878 25.7334 20.7623 25.6264 21.324C25.5194 22.0463 25.4392 22.7685 25.4124 23.4908C25.3857 24.0793 25.8404 24.5608 26.4022 24.5875H26.4557ZM64.7884 24.5073H64.8419C65.4304 24.4805 65.8584 23.999 65.8317 23.4105C65.8049 22.6883 65.7247 21.966 65.5909 21.2438C65.4839 20.682 64.9489 20.2808 64.3872 20.3878C63.8254 20.4948 63.4242 21.0298 63.5312 21.5915C63.6382 22.2335 63.6917 22.8755 63.7452 23.5175C63.7719 24.0525 64.2267 24.5073 64.7884 24.5073ZM27.7664 18.5955C28.1677 18.5955 28.5689 18.3548 28.7294 17.9535C28.9702 17.365 29.2644 16.7765 29.5587 16.2148C29.8262 15.7065 29.6657 15.0645 29.1574 14.797C28.6492 14.5295 28.0072 14.69 27.7397 15.1983C27.3919 15.8403 27.0709 16.4823 26.8034 17.151C26.5894 17.686 26.8302 18.3013 27.3652 18.5153C27.4989 18.5688 27.6327 18.5955 27.7664 18.5955ZM63.4509 18.5153C63.5847 18.5153 63.7184 18.4885 63.8522 18.435C64.3872 18.221 64.6279 17.6058 64.4139 17.0708C64.1464 16.402 63.8254 15.76 63.4777 15.118C63.1834 14.6098 62.5682 14.4225 62.0599 14.7168C61.5517 14.9843 61.3644 15.6263 61.6587 16.1345C61.9797 16.6963 62.2472 17.2848 62.4879 17.8733C62.6484 18.2745 63.0497 18.5153 63.4509 18.5153ZM31.0032 13.406C31.2974 13.406 31.5917 13.299 31.7789 13.0583C32.2069 12.5768 32.6617 12.122 33.1432 11.6673C33.5712 11.2928 33.5979 10.624 33.2234 10.196C32.8489 9.76802 32.1802 9.74127 31.7522 10.1158C31.2172 10.5973 30.7089 11.1055 30.2274 11.6673C29.8529 12.0953 29.8797 12.764 30.3077 13.1385C30.5217 13.299 30.7624 13.406 31.0032 13.406ZM60.1874 13.3258C60.4282 13.3258 60.6957 13.2455 60.8829 13.0583C61.3109 12.6838 61.3377 12.015 60.9632 11.587C60.4817 11.052 59.9734 10.5438 59.4384 10.0623C59.0104 9.68777 58.3417 9.71452 57.9672 10.1425C57.5927 10.5705 57.6194 11.2393 58.0474 11.6138C58.5289 12.0418 58.9837 12.4965 59.4117 12.978C59.5989 13.2188 59.8932 13.3258 60.1874 13.3258ZM35.7647 9.52727C35.9519 9.52727 36.1124 9.47377 36.2729 9.39352C36.8347 9.07252 37.4232 8.77827 38.0117 8.51077C38.5467 8.27002 38.7874 7.65477 38.5467 7.11977C38.3059 6.58477 37.6907 6.34402 37.1557 6.58477C36.4869 6.87902 35.8449 7.20002 35.2297 7.57452C34.7214 7.86877 34.5609 8.51077 34.8552 8.99227C35.0692 9.34002 35.4169 9.52727 35.7647 9.52727ZM55.3992 9.47377C55.7737 9.47377 56.1214 9.28652 56.3087 8.93877C56.6029 8.43052 56.4157 7.78852 55.9074 7.52102C55.2922 7.17327 54.6234 6.82552 53.9814 6.55802C53.4464 6.31727 52.8312 6.55802 52.6172 7.09302C52.4032 7.62802 52.6172 8.24327 53.1522 8.45727C53.7407 8.72477 54.3292 9.01902 54.8909 9.34002C55.0514 9.44702 55.2387 9.47377 55.3992 9.47377ZM41.4892 7.33377C41.5694 7.33377 41.6229 7.33377 41.7032 7.30702C42.3452 7.17327 42.9872 7.06627 43.6292 7.01277C44.1909 6.95927 44.6189 6.45102 44.5654 5.86252C44.5119 5.30077 44.0037 4.87277 43.4152 4.92627C42.6929 5.00652 41.9707 5.11352 41.2752 5.27402C40.7134 5.38102 40.3389 5.94277 40.4727 6.50452C40.5797 6.98602 41.0077 7.33377 41.4892 7.33377ZM49.6479 7.30702C50.1294 7.30702 50.5574 6.95927 50.6644 6.47777C50.7714 5.91602 50.4237 5.35427 49.8619 5.24727C49.1664 5.11352 48.4442 4.97977 47.7219 4.92627C47.1334 4.87277 46.6252 5.30077 46.5717 5.86252C46.5182 6.42427 46.9462 6.95927 47.5079 7.01277C48.1499 7.06627 48.7919 7.17327 49.4339 7.30702H49.6479Z" fill="#3C50E0"/>
</g>
<defs>
<clipPath id="clip0_13_175">
<rect width="107" height="107" rx="10" transform="matrix(-1 0 0 1 107 0.244995)" fill="white"/>
</clipPath>
</defs>
</svg>
