<svg width="107" height="108" viewBox="0 0 107 108" fill="none" xmlns="http://www.w3.org/2000/svg">
<g clip-path="url(#clip0_13_155)">
<path d="M53.5 107.245C83.0543 107.245 107 83.2993 107 53.745C107 24.1907 83.0543 0.244995 53.5 0.244995C23.9457 0.244995 0 24.1907 0 53.745C0 83.2993 23.9457 107.245 53.5 107.245Z" fill="#039BE5" fill-opacity="0.8"/>
<path d="M24.4762 52.5858L76.0592 32.6972C78.4488 31.8322 80.5442 33.2812 79.7685 36.9014L79.773 36.8969L70.99 78.2747C70.3436 81.2083 68.5959 81.9172 66.1572 80.5395L52.7822 70.6822L46.331 76.8971C45.6177 77.6104 45.0158 78.2123 43.6337 78.2123L44.5833 64.601L69.3717 42.2068C70.4461 41.2572 69.1309 40.7177 67.7087 41.6673L37.08 60.9541L23.8744 56.8346C21.0077 55.9251 20.9452 53.9634 24.4762 52.5858Z" fill="white"/>
<path d="M53.5 0.244995C23.9457 0.244995 0 24.1907 0 53.745C0 83.2993 23.9457 107.245 53.5 107.245V71.2083L52.7867 70.6822L46.3355 76.8971C45.6221 77.6105 45.0203 78.2123 43.6382 78.2123L44.5878 64.601L53.5 56.5448V50.6152L37.08 60.9541L23.8744 56.8346C21.0077 55.9296 20.9452 53.9679 24.4762 52.5858L53.5 41.3954V0.244995Z" fill="#0387C7"/>
<path d="M53.5 56.5448L44.5878 64.5966L43.6382 78.2078C45.0202 78.2078 45.6177 77.606 46.3355 76.8926L52.7867 70.6777L53.5 71.2083V56.5448ZM53.5 41.3954L24.4762 52.5858C20.9452 53.9679 21.0077 55.9296 23.8744 56.8346L37.08 60.9541L53.5 50.6152V41.3954Z" fill="#DEDEDE"/>
</g>
<defs>
<clipPath id="clip0_13_155">
<rect y="0.244995" width="107" height="107" rx="10" fill="white"/>
</clipPath>
</defs>
</svg>
